HIERARCHY
ROOT hip
{
	OFFSET 0.000000 0.000000 0.000000 
	CHANNELS 6 Xposition Yposition Zposition Xrotation Zrotation Yrotation
	JOINT abdomen
	{
		OFFSET 0.000000 3.402643 0.000000 
		CHANNELS 3 Xrotation Zrotation Yrotation
		JOINT chest
		{
			OFFSET 0.000000 8.438565 -0.680529 
			CHANNELS 3 Xrotation Zrotation Yrotation
			JOINT neck
			{
				OFFSET 0.000000 10.207942 -0.272212 
				CHANNELS 3 Xrotation Zrotation Yrotation
				JOINT head
				{
					OFFSET 0.000000 3.130431 0.000000 
					CHANNELS 3 Xrotation Zrotation Yrotation
					End Site
					{
						OFFSET 0.000000 3.130435 0.000000 
					}
				}
			}
			JOINT lCollar
			{
				OFFSET 3.470700 6.669187 -0.816635 
				CHANNELS 3 Yrotation Zrotation Xrotation
				JOINT lShldr
				{
					OFFSET 3.198488 0.000000 0.000000 
					CHANNELS 3 Zrotation Yrotation Xrotation
					JOINT lForeArm
					{
						OFFSET 10.139888 0.000000 0.000000 
						CHANNELS 3 Yrotation Zrotation Xrotation
						JOINT lHand
						{
							OFFSET 8.370511 0.000000 0.000000 
							CHANNELS 3 Zrotation Yrotation Xrotation
							End Site
							{
								OFFSET 4.083176 0.000000 0.000000 
							}
						}
					}
				}
			}
			JOINT rCollar
			{
				OFFSET -3.470700 6.669187 -0.816635 
				CHANNELS 3 Yrotation Zrotation Xrotation
				JOINT rShldr
				{
					OFFSET -3.198488 0.000000 0.000000 
					CHANNELS 3 Zrotation Yrotation Xrotation
					JOINT rForeArm
					{
						OFFSET -10.139888 0.000000 0.000000 
						CHANNELS 3 Yrotation Zrotation Xrotation
						JOINT rHand
						{
							OFFSET -8.370511 0.000000 0.000000 
							CHANNELS 3 Zrotation Yrotation Xrotation
							End Site
							{
								OFFSET -4.083176 0.000000 0.000000 
							}
						}
					}
				}
			}
		}
	}
	JOINT lThigh
	{
		OFFSET 5.308129 -1.633274 1.361059 
		CHANNELS 3 Xrotation Zrotation Yrotation
		JOINT lShin
		{
			OFFSET -2.041588 -20.007561 0.000000 
			CHANNELS 3 Xrotation Zrotation Yrotation
			JOINT lFoot
			{
				OFFSET 0.000000 -19.190928 -1.224953 
				CHANNELS 3 Xrotation Yrotation Zrotation
				End Site
				{
					OFFSET 0.000000 -2.449906 4.627600 
				}
			}
		}
	}
	JOINT rThigh
	{
		OFFSET -5.308129 -1.633274 1.361059 
		CHANNELS 3 Xrotation Zrotation Yrotation
		JOINT rShin
		{
			OFFSET 2.041588 -20.007561 0.000000 
			CHANNELS 3 Xrotation Zrotation Yrotation
			JOINT rFoot
			{
				OFFSET 0.000000 -19.190928 -1.224953 
				CHANNELS 3 Xrotation Yrotation Zrotation
				End Site
				{
					OFFSET 0.000000 -2.449906 4.627600 
				}
			}
		}
	}
}
MOTION
Frames: 9
Frame Time: 0.033333
-27.259289 8.535097 -0.605486 1.022263 -28.492270 86.473701 0.000000 0.000000 0.000000 35.217529 6.211120 0.002782 -12.245464 -2.924041 -11.663290 -18.958160 0.822464 0.244621 13.291351 14.906622 21.633043 -105.036148 -70.899750 52.218304 -23.768389 3.668475 25.067236 3.277334 -2.948008 -1.336222 -10.397877 -14.046501 24.242601 94.060120 60.079697 29.219769 16.050756 -5.616130 28.181749 -24.952276 -3.260709 -1.380307 -22.441174 1.182038 18.087662 -3.883352 -2.310180 -13.680584 0.251886 0.211793 -5.221303 -36.597500 -1.111799 -24.833214 -3.608788 2.036999 5.479423 7.743548 5.068085 3.026787 
-26.123432 8.459267 -0.489273 1.649344 -28.085838 86.547058 0.000000 0.000000 0.000000 35.399990 5.469071 -0.216911 -12.289017 -2.399033 -11.776483 -18.839077 0.511341 0.144636 13.129427 15.706623 22.150896 -106.259346 -72.012962 54.987438 -23.520229 3.898782 25.014172 0.782579 -3.646189 -1.199112 -10.596736 -13.424382 23.860981 93.967194 59.241207 28.433411 15.719025 -5.434865 27.737034 -24.952276 -3.260709 -1.380307 -20.644547 0.488865 18.437902 -3.890165 -2.303701 -13.973704 -0.784506 0.234659 -5.071447 -37.008667 -1.795343 -24.899826 -3.684797 2.104333 7.367972 1.238535 4.345340 7.331254 
-25.578081 8.423246 -0.433043 1.955517 -27.876829 86.572166 0.000000 0.000000 0.000000 35.493336 5.095448 -0.320869 -12.316094 -2.141362 -11.832362 -18.789665 0.364167 0.104263 13.049387 16.104893 22.416946 -106.923218 -72.564552 56.406422 -23.396563 4.020066 24.978783 -0.521801 -4.007792 -1.106836 -10.696161 -13.117766 23.671972 93.922760 58.839695 28.052986 15.557636 -5.355977 27.534870 -24.933409 -3.257121 -1.385120 -19.770153 0.163849 18.604259 -3.908947 -2.304847 -14.148623 -1.282994 0.250211 -4.999326 -37.235050 -1.992082 -26.308542 -3.763631 2.152460 9.325914 -1.647458 4.018694 9.299698 
-24.058361 8.147878 -0.189094 2.027024 -27.563412 87.673050 0.000000 0.000000 0.000000 34.280197 6.451870 -0.873070 -11.604464 -2.987529 -11.553667 -18.222660 -0.017429 -0.000951 12.896979 15.741142 20.161150 -105.328812 -69.215752 57.478649 -21.882530 4.181991 24.425358 -0.853880 -4.092899 -1.085361 -10.455213 -14.079895 22.544790 93.801933 56.908497 33.510860 13.541148 -6.445435 27.205971 -22.520586 -2.575598 -1.505874 -17.375982 0.007358 17.243622 -3.904598 -2.299752 -13.992893 -2.275082 0.371218 -5.817362 -35.374947 -0.758701 -30.064625 -3.847234 2.225223 11.683331 -1.642639 5.100342 -0.437836 
-22.419806 8.088331 -0.055252 2.298249 -26.827131 87.387192 0.000000 0.000000 0.000000 35.155121 6.665769 -0.648741 -12.230352 -3.238635 -10.926847 -18.126549 -0.593103 -0.179850 13.050400 15.272527 21.388596 -106.015137 -70.090218 59.771259 -21.223455 4.359354 24.238411 -2.284736 -4.486215 -0.980430 -10.511509 -14.211348 24.128042 93.655609 59.409763 34.886921 12.145705 -6.415884 26.201284 -21.878431 -2.390111 -1.528030 -16.269270 0.400829 16.953970 -1.658046 -2.384029 -13.635466 -3.154520 0.494370 -6.582939 -33.942574 0.001423 -32.121845 -3.881586 2.260774 13.282532 1.590326 5.682671 -5.117195 
-21.227036 8.062716 0.047872 2.086410 -26.615635 86.846611 0.000000 0.000000 0.000000 35.318859 7.302659 -0.204831 -12.499830 -3.434293 -9.728367 -18.123903 -1.404350 -0.416209 12.981042 14.716572 21.591881 -104.739258 -69.070412 59.175385 -20.526720 4.404441 23.824684 -3.346908 -4.776001 -0.895295 -10.349026 -14.711749 24.524813 93.567978 60.814381 36.758884 10.692440 -6.372616 25.115034 -20.694925 -2.056294 -1.581897 -19.502974 2.583335 16.868210 8.294964 -2.685781 -13.517393 -6.369965 0.623547 -6.551075 -33.141518 0.304420 -31.323528 -3.835551 2.224487 11.899002 6.050746 5.841900 -4.922726 
-20.036427 8.080461 0.168693 1.473496 -26.525631 86.235855 0.000000 0.000000 0.000000 35.398968 7.937976 0.292730 -12.604483 -3.183837 -8.183133 -17.964087 -2.376109 -0.697301 12.991220 14.499249 21.501215 -103.236328 -67.326187 58.729271 -19.439245 4.447421 23.300013 -3.922818 -4.935093 -0.841653 -10.145346 -14.991519 24.423483 93.437515 61.860683 38.842060 9.580906 -6.343798 24.406454 -20.317232 -1.943893 -1.595180 -22.593315 5.075497 17.216854 17.030333 -2.657930 -13.691870 -7.008994 0.732438 -7.250382 -31.838144 1.185318 -30.377581 -3.823031 2.211291 11.714538 6.178748 5.877486 -5.192470 
-19.550665 8.057453 0.366204 0.241826 -27.324011 86.030518 0.000000 0.000000 0.000000 33.732288 8.818164 0.806748 -11.716722 -2.719522 -7.045093 -17.554106 -2.840575 -0.832544 12.836452 14.939493 18.888088 -101.116753 -62.060867 56.146885 -18.045309 3.855999 21.809296 -3.835355 -4.909337 -0.850083 -9.694870 -15.404394 21.783291 93.121086 59.241318 40.243160 9.338501 -6.406583 24.291422 -19.801769 -1.800382 -1.610752 -27.902937 8.734862 17.893246 27.369207 -2.335502 -15.712737 -5.354064 0.771199 -8.511215 -31.272247 2.874413 -31.698963 -3.885774 2.253978 13.527301 5.463494 5.915549 -5.968091 
-18.431347 8.125500 0.604501 -0.242318 -27.548618 86.290039 0.000000 0.000000 0.000000 33.647774 8.769207 0.863254 -11.938011 -1.979879 -7.045283 -17.087328 -2.526052 -0.738811 13.003597 15.336628 19.709560 -100.984467 -61.581619 56.568913 -16.583794 3.219202 20.302616 -4.878930 -5.197216 -0.754420 -9.952585 -15.095843 22.229980 93.057556 60.410591 41.142467 10.243829 -6.569241 25.020769 -20.024281 -1.859251 -1.596909 -32.802307 11.035009 16.833939 35.813549 -2.000744 -16.201187 -0.302433 0.697267 -9.528696 -30.291664 3.711464 -32.526012 -3.914294 2.273731 14.120952 4.711452 6.021358 -7.393087 
